<?xml version="1.0" encoding="UTF-8" standalone="no"?>
<svg
   xmlns:dc="http://purl.org/dc/elements/1.1/"
   xmlns:cc="http://creativecommons.org/ns#"
   xmlns:rdf="http://www.w3.org/1999/02/22-rdf-syntax-ns#"
   xmlns:svg="http://www.w3.org/2000/svg"
   xmlns="http://www.w3.org/2000/svg"
   xmlns:sodipodi="http://sodipodi.sourceforge.net/DTD/sodipodi-0.dtd"
   xmlns:inkscape="http://www.inkscape.org/namespaces/inkscape"
   class="map map--2"
   viewBox="0 0 1200 800"
   width="100%"
   height="100%"
   preserveAspectRatio="xMidYMid meet"
   version="1.1"
   id="svg589"
   sodipodi:docname="2 floor.svg"
   inkscape:version="0.92.1 r15371">
  <metadata
     id="metadata595">
    <rdf:RDF>
      <cc:Work
         rdf:about="">
        <dc:format>image/svg+xml</dc:format>
        <dc:type
           rdf:resource="http://purl.org/dc/dcmitype/StillImage" />
      </cc:Work>
    </rdf:RDF>
  </metadata>
  <defs
     id="defs593" />
  <sodipodi:namedview
     pagecolor="#ffffff"
     bordercolor="#666666"
     borderopacity="1"
     objecttolerance="10"
     gridtolerance="10"
     guidetolerance="10"
     inkscape:pageopacity="0"
     inkscape:pageshadow="2"
     inkscape:window-width="1920"
     inkscape:window-height="1018"
     id="namedview591"
     showgrid="false"
     inkscape:zoom="0.8033724"
     inkscape:cx="638.58734"
     inkscape:cy="400"
     inkscape:window-x="-8"
     inkscape:window-y="-8"
     inkscape:window-maximized="1"
     inkscape:current-layer="svg589" />
  <title
     id="title545">Map Level 2</title>
  <rect
     style="fill:#ececec;fill-opacity:1"
     id="rect723"
     width="1202.4471"
     height="801.24475"
     x="0.55217022"
     y="0" />
  <polygon
     points="1035.94,423.16 855.37,423.16 855.37,350.52 1187.28,350.52 1187.28,12.59 548.09,12.59 548.09,68.87 437.36,68.87 437.36,12.59 49.37,12.59 49.37,366.5 12.72,366.5 12.72,787.41 356.2,787.41 414.93,584.41 554.4,584.41 627.81,787.41 1035.94,787.41 "
     class="map__ground"
     id="polygon547"
     style="display:none" />
  <path
     d="m 1187.28,12.59 v 337.93 l 4.1732,176.75489 0,200.84953 1.3356,60.99289 L 1035.95,787.41 H 627.81 l -216.55657,-1.35005 v 0 L 356.2,787.41 H 12.72 V 366.5 L 10.782665,225.84294 12.027417,15.079506 437.37,12.59 l 28.62931,1.510879 h 59.67514 L 548.08,12.59 h 639.19 M 1200,0 H 535.36 L 506.73069,0.26612619 477.47456,-2.2233793 450.09,0 H 0.55217021 L 1.796923,280.46959 0,353.91 V 800 h 365.8 l 130.91566,2.3842 v 0 0 0 L 618.83,800 l 584.1693,1.24475 -3.7342,-384.45099 -0.071,-18.67129 3.7343,-20.07544 L 1200,363.11 Z"
     class="map__outline"
     id="path549"
     inkscape:connector-curvature="0"
     sodipodi:nodetypes="cccccccccccccccccccccccccccccccccccccccc" />
  <polygon
     points="898.12 182.42 919.31 194.53 919.31 218.74 898.12 230.85 876.93 218.74 876.93 194.53 898.12 182.42"
     class="map__space"
     id="polygon559" />
  <rect
     x="9.5379105"
     y="12.59"
     width="160.57208"
     height="103.31346"
     class="map__space"
     id="rect567"
     style="stroke-width:1.06674922" />
  <rect
     data-space="2.01"
     x="187.56"
     y="12"
     width="192.7294"
     height="103.90347"
     class="map__space"
     id="rect569"
     style="stroke-width:0.82922447" />
  <rect
     x="491.25723"
     y="660.42303"
     width="141.27893"
     height="127.58665"
     class="map__space"
     id="rect571"
     style="stroke-width:2.22392488" />
  <rect
     x="353.07269"
     y="455.25739"
     width="87.782845"
     height="162.95485"
     class="map__space"
     id="rect126"
     style="stroke-width:0.67777044" />
  <rect
     data-space="2.05"
     x="638.3031"
     y="11.870911"
     width="93.139999"
     height="260.3028"
     class="map__space"
     id="rect129"
     style="stroke-width:1.02223921" />
  <rect
     x="737.44312"
     y="12.59"
     width="449.8269"
     height="98.510002"
     class="map__space"
     id="rect577"
     style="stroke-width:0.96337456" />
  <rect
     data-space="2.03"
     x="972.07001"
     y="120.1"
     width="219.21001"
     height="535.3844"
     class="map__space"
     id="rect128"
     style="stroke-width:1.52430809" />
  <rect
     x="731.44312"
     y="117.10001"
     width="186.87466"
     height="155.07368"
     class="map__space"
     id="rect130"
     style="stroke-width:1.95763433"
     inkscape:label="#rect128" />
  <rect
     data-space="2.08"
     x="636.20264"
     y="292.53705"
     width="281.40497"
     height="270.89355"
     class="map__space"
     id="rect127"
     style="stroke-width:1.07654107" />
  <rect
     x="9.5379105"
     y="115.90346"
     width="84.048584"
     height="187.84991"
     class="map__space"
     id="rect573-1"
     style="stroke-width:0.71205717" />
  <rect
     x="12.744828"
     y="345.09674"
     width="84.048584"
     height="207.76596"
     class="map__space"
     id="rect573-1-5"
     style="stroke-width:0.74885297" />
  <rect
     x="12.72"
     y="638.1474"
     width="158.73375"
     height="149.26257"
     class="map__space"
     id="rect573-1-3"
     style="stroke-width:0.87227672" />
  <rect
     x="12.72"
     y="558.81476"
     width="159.9785"
     height="73.332657"
     class="map__space"
     id="rect573-1-3-6"
     style="stroke-width:0.61379546" />
  <rect
     x="145.93335"
     y="320.20169"
     width="81.559082"
     height="211.50021"
     class="map__space"
     id="rect573-2"
     style="stroke-width:0.74427891" />
  <rect
     x="270.19876"
     y="725.76733"
     width="213.50288"
     height="62.12989"
     class="map__space"
     id="rect573-2-0"
     style="stroke-width:0.65267396" />
  <rect
     x="640.53613"
     y="660.42303"
     width="271.97797"
     height="127.58665"
     class="map__space"
     id="rect571-2"
     style="stroke-width:3.08566141" />
  <g
     transform="matrix(0.50480166,0,0,0.50480166,345.69624,731.19331)"
     id="g198"
     style="fill:#999999">
    <polygon
       points="77.676,64.181 84.162,64.181 78.549,49.579 80.169,40.741 86.63,54.63 90.584,52.79 81.528,33.322 81.546,33.217 63.666,33.217 63.685,33.322 54.628,52.79 58.582,54.63 65.044,40.741 66.664,49.579 61.049,64.181 67.536,64.181 69.756,79.934 75.456,79.934 "
       id="polygon188"
       style="fill:#999999" />
    <circle
       cx="72.606003"
       cy="25.667"
       r="5.724"
       id="circle190"
       style="fill:#999999" />
    <polygon
       points="41.417,54.507 45.372,52.667 36.319,33.208 36.334,33.095 18.454,33.095 18.469,33.208 9.416,52.667 13.371,54.507 19.566,41.19 21.113,52.449 17.145,80.057 23.825,80.057 27.394,57.519 30.963,80.057 37.643,80.057 33.675,52.449 35.222,41.19 "
       id="polygon192"
       style="fill:#999999" />
    <circle
       cx="27.393999"
       cy="25.667"
       r="5.724"
       id="circle194"
       style="fill:#999999" />
    <rect
       x="48.75"
       y="19.555"
       width="2.5"
       height="60.890999"
       id="rect196"
       style="fill:#999999" />
  </g>
  <rect
     x="145.93338"
     y="136.60065"
     width="184.87358"
     height="95.738213"
     class="map__space"
     id="rect121"
     style="stroke-width:0.75391817" />
  <rect
     x="245.5136"
     y="455.25739"
     width="81.559082"
     height="78.311668"
     class="map__space"
     id="rect123"
     style="stroke-width:0.45289084" />
  <rect
     x="245.5136"
     y="281.81302"
     width="81.559082"
     height="165.44437"
     class="map__space"
     id="rect122"
     style="stroke-width:0.6582734" />
  <rect
     x="353.07269"
     y="281.81302"
     width="87.782845"
     height="162.95485"
     class="map__space"
     id="rect125"
     style="stroke-width:0.67777044" />
  <rect
     x="353.07269"
     y="134.99796"
     width="87.782845"
     height="136.81505"
     class="map__space"
     id="rect124"
     style="stroke-width:0.62103474"
     inkscape:label="#rect124" />
  <rect
     x="456.49915"
     y="366.25757"
     width="105.20938"
     height="252.57706"
     class="map__space"
     id="rect573-35"
     style="stroke-width:0.92377949" />
</svg>
