<svg xmlns="http://www.w3.org/2000/svg" xmlns:xlink="http://www.w3.org/1999/xlink" version="1.1" x="0px" y="0px" viewBox="0 0 100 125" enable-background="new 0 0 100 100" xml:space="preserve"><g><polygon points="86.63,54.63 90.584,52.79 81.528,33.322 81.546,33.217 63.666,33.217 63.685,33.322 54.628,52.79 58.582,54.63    65.044,40.741 66.664,49.579 61.049,64.181 67.536,64.181 69.756,79.934 75.456,79.934 77.676,64.181 84.162,64.181 78.549,49.579    80.169,40.741  "/><circle cx="72.606" cy="25.667" r="5.724"/><polygon points="36.334,33.095 18.454,33.095 18.469,33.208 9.416,52.667 13.371,54.507 19.566,41.19 21.113,52.449 17.145,80.057    23.825,80.057 27.394,57.519 30.963,80.057 37.643,80.057 33.675,52.449 35.222,41.19 41.417,54.507 45.372,52.667 36.319,33.208     "/><circle cx="27.394" cy="25.667" r="5.724"/><rect x="48.75" y="19.555" width="2.5" height="60.891"/></g><text x="0" y="115" fill="#000000" font-size="5px" font-weight="bold" font-family="'Helvetica Neue', Helvetica, Arial-Unicode, Arial, Sans-serif">Created by asianson.design</text><text x="0" y="120" fill="#000000" font-size="5px" font-weight="bold" font-family="'Helvetica Neue', Helvetica, Arial-Unicode, Arial, Sans-serif">from the Noun Project</text></svg>