<?xml version="1.0" encoding="UTF-8" standalone="no"?>
<svg
   xmlns:dc="http://purl.org/dc/elements/1.1/"
   xmlns:cc="http://creativecommons.org/ns#"
   xmlns:rdf="http://www.w3.org/1999/02/22-rdf-syntax-ns#"
   xmlns:svg="http://www.w3.org/2000/svg"
   xmlns="http://www.w3.org/2000/svg"
   xmlns:sodipodi="http://sodipodi.sourceforge.net/DTD/sodipodi-0.dtd"
   xmlns:inkscape="http://www.inkscape.org/namespaces/inkscape"
   viewBox="0 0 100 125"
   x="0px"
   y="0px"
   version="1.1"
   id="svg4499"
   sodipodi:docname="noun_1085260_cc.svg"
   inkscape:version="0.92.1 r15371">
  <metadata
     id="metadata4505">
    <rdf:RDF>
      <cc:Work
         rdf:about="">
        <dc:format>image/svg+xml</dc:format>
        <dc:type
           rdf:resource="http://purl.org/dc/dcmitype/StillImage" />
      </cc:Work>
    </rdf:RDF>
  </metadata>
  <defs
     id="defs4503" />
  <sodipodi:namedview
     pagecolor="#ffffff"
     bordercolor="#666666"
     borderopacity="1"
     objecttolerance="10"
     gridtolerance="10"
     guidetolerance="10"
     inkscape:pageopacity="0"
     inkscape:pageshadow="2"
     inkscape:window-width="1920"
     inkscape:window-height="1018"
     id="namedview4501"
     showgrid="false"
     inkscape:zoom="6.792"
     inkscape:cx="50"
     inkscape:cy="62.5"
     inkscape:window-x="-8"
     inkscape:window-y="-8"
     inkscape:window-maximized="1"
     inkscape:current-layer="svg4499" />
  <title
     id="title4485">SCHOOL_ICONS_100</title>
  <path
     d="M37.22,23.88a9.36,9.36,0,1,0,9.36,9.36A9.37,9.37,0,0,0,37.22,23.88Zm0,15.71a6.36,6.36,0,1,1,6.36-6.36A6.36,6.36,0,0,1,37.22,39.59Z"
     id="path4487" />
  <path
     d="M53.13,56.78l7.64-7.64a1.5,1.5,0,0,0,0-2.12L55.64,41.9c.27-.57.51-1.16.73-1.76h7.25a1.5,1.5,0,0,0,1.5-1.5V27.83a1.5,1.5,0,0,0-1.5-1.5H56.36c-.22-.6-.46-1.19-.73-1.76l5.12-5.12a1.5,1.5,0,0,0,0-2.12L53.13,9.69a1.54,1.54,0,0,0-2.12,0l-5.12,5.12q-.86-.4-1.76-.73V6.83a1.5,1.5,0,0,0-1.5-1.5H31.82a1.5,1.5,0,0,0-1.5,1.5v7.25q-.91.33-1.76.73L23.43,9.69a1.54,1.54,0,0,0-2.12,0l-7.64,7.64a1.5,1.5,0,0,0,0,2.12l5.12,5.12q-.4.86-.73,1.76H10.82a1.5,1.5,0,0,0-1.5,1.5v10.8a1.5,1.5,0,0,0,1.5,1.5h7.25q.32.91.73,1.76L13.67,47a1.5,1.5,0,0,0,0,2.12l7.64,7.64a1.54,1.54,0,0,0,2.12,0l5.12-5.12q.86.4,1.76.73v7.25a1.5,1.5,0,0,0,1.5,1.5h10.8a1.5,1.5,0,0,0,1.5-1.5V52.38q.91-.33,1.76-.73L51,56.78A1.54,1.54,0,0,0,53.13,56.78Zm-7.67-8.27a17.18,17.18,0,0,1-3.27,1.35,1.5,1.5,0,0,0-1.07,1.44v6.84h-7.8V51.29a1.5,1.5,0,0,0-1.07-1.44A17.18,17.18,0,0,1,29,48.51a1.5,1.5,0,0,0-1.77.26L22.37,53.6l-5.52-5.52,4.83-4.83a1.5,1.5,0,0,0,.26-1.77,17.28,17.28,0,0,1-1.35-3.27,1.5,1.5,0,0,0-1.44-1.07H12.32v-7.8h6.84a1.5,1.5,0,0,0,1.44-1.07A17.28,17.28,0,0,1,21.94,25a1.5,1.5,0,0,0-.26-1.77l-4.83-4.83,5.52-5.52L27.2,17.7A1.5,1.5,0,0,0,29,18a17.18,17.18,0,0,1,3.27-1.35,1.5,1.5,0,0,0,1.07-1.44V8.33h7.8v6.84a1.5,1.5,0,0,0,1.07,1.44A17.18,17.18,0,0,1,45.46,18a1.5,1.5,0,0,0,1.77-.26l4.83-4.83,5.52,5.52-4.83,4.83A1.5,1.5,0,0,0,52.49,25a17.28,17.28,0,0,1,1.35,3.27,1.5,1.5,0,0,0,1.44,1.07h6.84v7.8H55.28a1.5,1.5,0,0,0-1.44,1.07,17.28,17.28,0,0,1-1.35,3.27,1.5,1.5,0,0,0,.26,1.77l4.83,4.83L52.06,53.6l-4.83-4.83A1.5,1.5,0,0,0,45.46,48.51Z"
     id="path4489" />
  <path
     d="M71.69,66.9a7.37,7.37,0,1,0,7.37,7.37A7.38,7.38,0,0,0,71.69,66.9Zm0,11.74a4.37,4.37,0,1,1,4.37-4.37A4.38,4.38,0,0,1,71.69,78.64Z"
     id="path4491" />
  <path
     d="M91.42,68.74H86.26q-.16-.44-.35-.86l3.64-3.64a1.5,1.5,0,0,0,0-2.12l-5.71-5.71a1.54,1.54,0,0,0-2.12,0l-3.64,3.64q-.42-.19-.86-.35V54.54a1.5,1.5,0,0,0-1.5-1.5H67.65a1.5,1.5,0,0,0-1.5,1.5V59.7q-.44.16-.86.35l-3.64-3.64a1.5,1.5,0,0,0-2.12,0l-5.71,5.71a1.5,1.5,0,0,0,0,2.12l3.64,3.64q-.19.42-.35.86H52a1.5,1.5,0,0,0-1.5,1.5v8.07a1.5,1.5,0,0,0,1.5,1.5h5.15q.16.44.35.86l-3.64,3.64a1.5,1.5,0,0,0,0,2.12l5.71,5.71a1.5,1.5,0,0,0,2.12,0l3.64-3.64q.42.19.86.35V94a1.5,1.5,0,0,0,1.5,1.5h8.07a1.5,1.5,0,0,0,1.5-1.5V88.85q.44-.16.86-.35l3.64,3.64a1.5,1.5,0,0,0,2.12,0l5.71-5.71a1.5,1.5,0,0,0,0-2.12l-3.64-3.64q.19-.42.35-.86h5.15a1.5,1.5,0,0,0,1.5-1.5V70.24A1.5,1.5,0,0,0,91.42,68.74Zm-1.5,8.07H85.19a1.5,1.5,0,0,0-1.44,1.07,12.51,12.51,0,0,1-1,2.37A1.5,1.5,0,0,0,83,82l3.34,3.34L82.79,89l-3.34-3.34a1.5,1.5,0,0,0-1.77-.26,12.57,12.57,0,0,1-2.37,1,1.5,1.5,0,0,0-1.07,1.44V92.5H69.15V87.77a1.5,1.5,0,0,0-1.07-1.44,12.54,12.54,0,0,1-2.37-1,1.5,1.5,0,0,0-1.77.26L60.59,89,57,85.37,60.35,82a1.5,1.5,0,0,0,.26-1.77,12.51,12.51,0,0,1-1-2.37,1.5,1.5,0,0,0-1.44-1.07H53.46V71.74h4.73a1.5,1.5,0,0,0,1.44-1.07,12.51,12.51,0,0,1,1-2.37,1.5,1.5,0,0,0-.26-1.77L57,63.18l3.59-3.59,3.34,3.34a1.5,1.5,0,0,0,1.77.26,12.51,12.51,0,0,1,2.37-1,1.5,1.5,0,0,0,1.07-1.44V56h5.07v4.73a1.5,1.5,0,0,0,1.07,1.44,12.51,12.51,0,0,1,2.38,1,1.5,1.5,0,0,0,1.77-.26l3.34-3.34,3.59,3.59L83,66.52a1.5,1.5,0,0,0-.26,1.77,12.51,12.51,0,0,1,1,2.37,1.5,1.5,0,0,0,1.44,1.07h4.73Z"
     id="path4493" />
</svg>
