<svg xmlns="http://www.w3.org/2000/svg" xmlns:xlink="http://www.w3.org/1999/xlink" version="1.1" x="0px" y="0px" viewBox="0 0 100 125" enable-background="new 0 0 100 100" xml:space="preserve"><g><path d="M59.249,87.955c-0.902-6.198,1.643-12.103,6.166-15.812L14.417,54.338c-4.62-1.612-9.671,0.826-11.285,5.445   c-1.614,4.619,0.824,9.672,5.444,11.285l50.856,17.756C59.374,88.532,59.292,88.252,59.249,87.955z"/><path d="M83.104,78.318l-11.012-3.845c-5.032,1.93-8.256,7.145-7.446,12.695c0.205,1.409,0.665,2.73,1.317,3.936l11.302,3.945   c1.392,0.485,2.821,0.603,4.188,0.404c3.164-0.461,5.97-2.622,7.096-5.851C90.161,84.985,87.724,79.933,83.104,78.318z"/></g><path d="M78.018,69.926c-1.882,0-3.407-1.525-3.407-3.407c0-6.329-1.924-9.335-4.15-12.815c-2.449-3.829-5.227-8.167-5.227-16.49  c0-8.323,2.777-12.661,5.227-16.489c2.227-3.481,4.15-6.487,4.15-12.816c0-1.882,1.525-3.408,3.407-3.408s3.407,1.525,3.407,3.408  c0,8.323-2.776,12.661-5.226,16.49c-2.227,3.48-4.15,6.486-4.15,12.815c0,6.33,1.924,9.335,4.15,12.816  c2.449,3.829,5.226,8.167,5.226,16.49C81.425,68.4,79.899,69.926,78.018,69.926z"/><path d="M91.648,69.926c-1.883,0-3.408-1.525-3.408-3.407c0-6.329-1.923-9.335-4.15-12.815c-2.449-3.829-5.226-8.167-5.226-16.49  c0-8.323,2.776-12.661,5.226-16.489c2.228-3.481,4.15-6.487,4.15-12.816c0-1.882,1.525-3.408,3.408-3.408  c1.882,0,3.407,1.525,3.407,3.408c0,8.323-2.776,12.661-5.226,16.49c-2.228,3.48-4.15,6.486-4.15,12.815  c0,6.33,1.923,9.335,4.15,12.816c2.449,3.829,5.226,8.167,5.226,16.49C95.056,68.4,93.53,69.926,91.648,69.926z"/><text x="0" y="115" fill="#000000" font-size="5px" font-weight="bold" font-family="'Helvetica Neue', Helvetica, Arial-Unicode, Arial, Sans-serif">Created by bmijnlieff</text><text x="0" y="120" fill="#000000" font-size="5px" font-weight="bold" font-family="'Helvetica Neue', Helvetica, Arial-Unicode, Arial, Sans-serif">from the Noun Project</text></svg>