<!DOCTYPE svg PUBLIC "-//W3C//DTD SVG 20010904//EN" "http://www.w3.org/TR/2001/REC-SVG-20010904/DTD/svg10.dtd">
<svg version="1.0" xmlns="http://www.w3.org/2000/svg" width="144px" height="334px" viewBox="0 0 1440 3340" preserveAspectRatio="xMidYMid meet">
<g id="layer101" fill="#413f38" stroke="none">
 <path d="M1025 2107 c-8 -19 12 -50 26 -41 13 7 11 17 -5 40 -14 18 -15 18 -21 1z"/>
 <path d="M1145 1081 c-3 -6 5 -15 17 -22 13 -6 37 -25 55 -41 40 -39 62 -29 32 15 -12 18 -29 38 -37 45 -19 14 -58 16 -67 3z"/>
 </g>
<g id="layer102" fill="#736b63" stroke="none">
 <path d="M995 2278 c-2 -7 -5 -20 -8 -28 -2 -8 0 -26 5 -40 5 -14 12 -45 15 -70 6 -51 28 -93 46 -87 14 5 10 175 -4 194 -7 7 -6 14 1 18 6 3 8 11 5 16 -9 13 -55 11 -60 -3z"/>
 <path d="M1103 1333 c-3 -10 -17 -30 -30 -44 -17 -19 -21 -29 -13 -34 15 -9 70 43 70 66 0 25 -19 34 -27 12z"/>
 <path d="M1074 1195 c-16 -13 -33 -21 -37 -18 -5 3 -30 -15 -55 -40 -66 -63 -82 -70 -139 -57 -27 6 -66 21 -89 32 -29 15 -49 19 -70 14 -36 -9 -169 -140 -159 -156 5 -8 12 -6 26 5 15 14 24 15 48 7 33 -12 43 -5 55 36 7 19 14 22 62 22 39 0 54 -4 52 -12 -2 -7 0 -13 3 -13 3 0 17 -12 30 -28 13 -15 36 -28 51 -29 21 -2 24 -5 16 -15 -7 -9 -15 -10 -22 -4 -14 12 -79 -35 -70 -50 3 -5 10 -6 16 -3 6 4 8 2 4 -4 -16 -26 16 -18 66 17 58 40 79 48 168 60 30 4 62 11 70 14 35 14 96 15 120 2 14 -7 24 -16 23 -19 -2 -3 0 -5 5 -4 4 2 6 7 4 12 -2 5 3 4 11 -2 19 -16 28 -4 21 27 -7 30 -73 103 -86 95 -4 -3 -6 -10 -2 -15 3 -5 9 -7 13 -5 4 3 8 -1 8 -9 0 -20 -65 32 -83 66 -8 15 -14 41 -14 58 0 40 -11 44 -46 16z m-160 -191 c18 -12 18 -14 2 -20 -10 -4 -22 -2 -28 4 -6 6 -16 9 -22 6 -6 -2 -22 6 -36 17 l-25 20 45 -7 c25 -3 54 -13 64 -20z"/>
 <path d="M715 1011 c-7 -12 12 -24 25 -16 11 7 4 25 -10 25 -5 0 -11 -4 -15 -9z"/>
 <path d="M725 860 c-3 -5 -15 -10 -25 -10 -21 0 -52 -38 -44 -52 3 -5 0 -15 -6 -23 -16 -20 -3 -40 16 -24 8 6 14 18 14 26 0 9 16 30 36 48 20 18 31 36 25 39 -5 4 -12 2 -16 -4z"/>
 <path d="M845 536 c-15 -11 -17 -18 -9 -26 14 -14 57 5 51 23 -5 17 -21 18 -42 3z"/>
 <path d="M975 480 c-4 -6 -2 -16 3 -23 10 -13 9 -93 -2 -104 -3 -3 3 -21 14 -39 13 -21 17 -35 10 -39 -15 -10 -4 -22 19 -20 34 2 61 34 51 60 -5 12 -8 45 -7 72 2 61 -15 88 -45 72 -12 -6 -18 -7 -14 -1 3 5 -1 15 -8 21 -10 9 -16 9 -21 1z m56 -93 c-1 -12 -15 -9 -19 4 -3 6 1 10 8 8 6 -3 11 -8 11 -12z"/>
 <path d="M806 391 c-9 -14 22 -34 41 -26 17 6 17 7 -1 21 -23 16 -33 18 -40 5z"/>
 <path d="M834 306 c-3 -8 -11 -13 -18 -10 -15 6 -51 -32 -38 -40 5 -3 17 1 27 8 15 11 23 11 46 -1 39 -20 53 -9 34 28 -16 31 -42 38 -51 15z"/>
 <path d="M896 312 c-10 -16 24 -37 41 -26 9 5 15 14 15 19 -2 13 -49 19 -56 7z"/>
 <path d="M895 150 c-4 -6 -3 -16 3 -22 6 -6 12 -6 17 2 4 6 3 16 -3 22 -6 6 -12 6 -17 -2z"/>
 </g>
<g id="layer103" fill="#878179" stroke="none">
 <path d="M1146 3258 c-3 -7 -7 -36 -10 -65 -4 -39 -1 -55 11 -64 23 -20 44 14 37 59 -10 65 -29 99 -38 70z"/>
 <path d="M945 2910 c-4 -6 -3 -16 3 -22 6 -6 12 -6 17 2 4 6 3 16 -3 22 -6 6 -12 6 -17 -2z"/>
 <path d="M965 2790 c-4 -6 -3 -16 3 -22 6 -6 12 -6 17 2 4 6 3 16 -3 22 -6 6 -12 6 -17 -2z"/>
 <path d="M985 2651 c-3 -6 -4 -24 -1 -39 4 -15 7 -44 8 -65 1 -39 11 -53 28 -42 8 5 8 11 1 19 -7 8 -7 16 -1 22 5 5 5 26 -1 54 -11 50 -23 68 -34 51z"/>
 <path d="M994 2328 c-5 -7 -7 -21 -6 -31 3 -13 -2 -17 -15 -15 -11 2 -18 -3 -18 -14 0 -9 -3 -20 -7 -23 -4 -4 -4 -13 -2 -20 3 -7 0 -16 -5 -20 -16 -10 -3 -25 21 -25 21 0 20 -1 -6 -29 -17 -18 -24 -31 -17 -35 6 -4 16 -4 23 0 7 5 8 3 3 -6 -5 -8 1 -20 16 -32 22 -18 22 -18 2 -9 -25 13 -41 -2 -25 -22 20 -24 70 -206 63 -231 -1 -5 1 -16 4 -24 4 -12 10 -11 31 9 l25 24 -1 -140 c-3 -149 2 -162 43 -112 13 17 16 33 13 67 -3 25 -8 110 -12 190 -7 142 -15 187 -35 175 -14 -9 -12 201 4 226 10 17 9 22 -13 39 -13 10 -29 18 -34 17 -5 -1 -12 9 -15 22 -8 29 -26 38 -37 19z m50 -178 c6 -87 -7 -95 -17 -10 -3 25 -10 56 -15 70 -5 14 -7 31 -4 38 11 33 30 -18 36 -98z"/>
 <path d="M405 2250 c-2 -4 4 -15 15 -25 22 -20 45 -12 31 12 -10 18 -38 26 -46 13z"/>
 <path d="M527 2223 c-4 -3 -2 -12 5 -20 16 -19 3 -27 -45 -28 -23 0 -42 -4 -42 -10 0 -5 21 -10 46 -9 37 0 48 -3 55 -20 5 -12 15 -20 22 -19 6 2 19 -14 27 -34 9 -20 37 -69 62 -108 26 -38 58 -88 72 -109 14 -21 33 -64 41 -95 8 -31 20 -54 25 -51 11 5 14 41 19 263 4 149 -3 180 -30 142 -13 -17 -15 -17 -66 3 -48 19 -85 27 -98 22 -34 -12 -51 -8 -60 16 -6 14 -8 29 -5 34 6 10 -20 32 -28 23z"/>
 <path d="M785 1690 c-4 -6 -3 -16 3 -22 6 -6 12 -6 17 2 4 6 3 16 -3 22 -6 6 -12 6 -17 -2z"/>
 <path d="M1115 1527 c-9 -22 -2 -62 10 -60 6 1 11 14 13 29 4 32 -14 56 -23 31z"/>
 <path d="M1105 1441 c-3 -6 -6 -27 -6 -48 -1 -43 -21 -94 -44 -113 -10 -8 -12 -16 -6 -24 13 -16 2 -56 -13 -50 -7 3 -24 -10 -38 -28 -26 -33 -26 -34 -104 -33 -99 2 -164 13 -161 28 1 7 -10 12 -26 12 -17 1 -33 8 -39 18 -13 24 -31 10 -24 -19 5 -19 -2 -33 -30 -62 -20 -20 -48 -57 -62 -82 -14 -25 -34 -51 -43 -57 -15 -11 -17 -30 -10 -83 1 -3 17 12 36 33 36 39 73 47 67 14 -3 -20 39 -43 63 -33 13 4 14 10 5 26 -13 25 -13 25 35 0 45 -23 69 -12 42 18 -16 18 -15 18 29 8 l46 -11 -41 -36 c-23 -20 -41 -42 -41 -50 0 -7 -3 -10 -6 -6 -12 12 -64 -16 -87 -46 -48 -63 -40 -103 18 -93 34 6 39 11 40 39 0 14 10 27 28 35 20 10 27 20 27 41 0 17 7 31 16 35 8 3 12 2 9 -3 -12 -20 15 -21 35 -1 11 11 20 17 20 14 0 -3 19 5 43 19 23 13 65 29 92 35 105 22 181 35 204 33 29 -1 44 -20 30 -38 -6 -7 -8 -17 -4 -23 11 -18 78 36 81 66 4 37 -6 51 -22 29 -10 -13 -19 -16 -41 -9 -15 4 -48 8 -73 8 -31 1 -45 5 -45 15 0 22 -37 29 -77 15 -21 -7 -38 -11 -38 -9 0 3 -12 0 -26 -6 -20 -7 -31 -6 -43 5 -19 17 -187 40 -260 35 l-52 -4 26 22 c40 35 72 39 119 15 23 -11 62 -26 89 -32 57 -13 73 -6 139 58 26 25 51 43 54 39 4 -3 24 7 44 23 45 36 52 64 50 217 0 41 -13 63 -25 44z m-125 -460 c0 -10 -25 -21 -48 -21 -15 1 -14 3 2 15 22 17 46 20 46 6z"/>
 <path d="M525 1311 c-7 -12 12 -24 25 -16 11 7 4 25 -10 25 -5 0 -11 -4 -15 -9z"/>
 <path d="M1107 1153 c-4 -6 0 -18 7 -28 8 -11 16 -14 19 -8 4 6 0 18 -7 28 -8 11 -16 14 -19 8z"/>
 <path d="M1145 1091 c-7 -12 12 -24 25 -16 11 7 4 25 -10 25 -5 0 -11 -4 -15 -9z"/>
 <path d="M1206 1082 c-3 -5 5 -19 18 -31 13 -13 26 -18 30 -13 3 5 -5 19 -18 31 -13 13 -26 18 -30 13z"/>
 <path d="M455 860 c-3 -5 -4 -14 -1 -19 5 -8 14 -8 45 -2 7 2 -21 31 -30 31 -4 0 -11 -4 -14 -10z"/>
 <path d="M1204 846 c-18 -14 -18 -15 -1 -21 19 -8 50 12 41 26 -7 13 -17 11 -40 -5z"/>
 <path d="M845 591 c-3 -6 -3 -15 0 -21 3 -5 -4 -23 -16 -39 -25 -34 -18 -53 19 -49 15 2 27 -2 27 -9 0 -6 3 -15 8 -19 4 -4 7 -14 7 -22 0 -13 -3 -13 -18 1 -20 19 -57 23 -67 8 -7 -12 60 -45 74 -36 6 3 11 -1 11 -10 0 -9 11 -27 25 -40 22 -23 22 -25 5 -25 -10 0 -22 -4 -25 -10 -4 -6 -17 -4 -36 6 -29 15 -31 14 -36 -6 -5 -19 -7 -20 -29 -5 -22 14 -25 14 -30 0 -4 -9 -4 -19 -1 -22 4 -3 2 -14 -3 -24 -10 -18 3 -38 14 -21 3 5 24 7 48 5 24 -2 56 -4 72 -4 16 0 43 -11 59 -25 32 -27 48 -24 39 8 -5 21 -5 21 14 2 17 -16 18 -21 5 -30 -24 -19 6 -27 33 -9 14 10 26 29 29 48 8 53 9 136 0 150 -4 6 -9 27 -10 45 -1 19 -7 40 -14 48 -6 8 -8 14 -4 14 4 0 2 7 -5 15 -7 8 -28 15 -48 15 -40 0 -123 36 -119 52 3 14 -20 21 -28 9z m198 -161 c6 -22 0 -25 -23 -10 -13 9 -13 11 0 20 8 5 16 10 16 10 1 0 4 -9 7 -20z m-1 -95 c7 -9 -8 -25 -24 -25 -4 0 -12 9 -18 20 -9 17 -8 20 12 17 13 -1 26 -6 30 -12z"/>
 <path d="M1016 572 c-3 -6 1 -15 8 -21 8 -7 17 -8 20 -3 3 6 -1 15 -8 21 -8 7 -17 8 -20 3z"/>
 <path d="M812 389 c-32 -12 -23 -34 14 -34 22 0 29 5 29 19 0 23 -12 28 -43 15z"/>
 <path d="M975 161 c-7 -12 12 -24 25 -16 11 7 4 25 -10 25 -5 0 -11 -4 -15 -9z"/>
 <path d="M815 150 c-8 -12 20 -24 35 -15 6 3 8 11 5 16 -8 12 -32 12 -40 -1z"/>
 <path d="M874 139 c-17 -19 -6 -33 15 -20 7 5 21 7 30 4 14 -4 52 24 40 28 -24 9 -72 2 -85 -12z"/>
 </g>
<g id="layer104" fill="#bbb9b5" stroke="none">
 <path d="M94 3272 c-3 -9 -10 -26 -16 -36 -21 -39 -25 -72 -14 -102 11 -26 10 -30 -8 -39 -44 -22 -24 -39 59 -53 44 -7 87 -20 96 -28 8 -8 23 -14 31 -14 9 0 34 -10 56 -21 43 -23 57 -55 42 -93 -5 -12 -9 -17 -9 -12 -1 5 -10 1 -21 -9 -17 -15 -20 -31 -20 -101 0 -83 10 -110 29 -77 10 17 10 16 11 -3 0 -11 -9 -29 -20 -39 -18 -16 -20 -31 -20 -141 0 -117 1 -124 25 -150 29 -31 31 -40 9 -48 -9 -4 -12 -11 -7 -18 4 -7 8 -16 9 -20 1 -5 3 -11 4 -15 1 -5 3 -28 4 -53 0 -25 6 -45 11 -45 22 -1 54 -26 60 -47 4 -13 20 -36 36 -53 25 -26 29 -40 33 -107 6 -100 43 -179 102 -221 32 -22 41 -35 39 -53 -2 -23 17 -45 71 -82 31 -20 -38 -4 -102 24 -29 13 -56 19 -59 15 -5 -9 83 -69 153 -105 40 -21 35 -32 -18 -41 -22 -4 -42 -11 -45 -15 -6 -10 33 -40 52 -40 7 0 21 -8 31 -18 17 -17 16 -19 -25 -39 l-43 -21 -26 54 c-15 30 -31 57 -36 60 -5 4 5 15 23 26 21 13 28 23 21 30 -7 7 -17 6 -31 -2 -26 -13 -37 -8 -56 29 -9 19 -11 31 -4 38 12 12 -28 46 -43 37 -12 -8 -10 -25 13 -90 14 -40 21 -88 22 -152 2 -80 5 -96 22 -108 16 -12 18 -18 7 -34 -6 -11 -12 -44 -12 -74 0 -59 -23 -163 -40 -180 -5 -5 -10 -17 -10 -26 0 -9 -9 -35 -21 -59 -11 -23 -19 -50 -18 -59 1 -9 -1 -25 -6 -35 -5 -12 -3 -24 6 -33 12 -11 19 -11 39 -1 14 7 28 14 33 15 4 1 7 4 7 7 0 3 0 8 0 11 0 4 -6 2 -13 -5 -10 -8 -17 -7 -25 1 -8 8 1 17 36 33 26 12 60 25 75 29 28 7 28 6 13 -15 -11 -16 -12 -27 -5 -40 11 -21 1 -101 -12 -94 -4 3 -10 1 -13 -4 -4 -5 -2 -12 3 -16 6 -3 8 -12 5 -19 -3 -8 -1 -17 5 -21 6 -3 14 0 17 9 8 20 34 9 34 -14 0 -24 16 -34 27 -17 4 7 17 17 27 21 18 6 18 8 -4 31 -13 14 -19 25 -13 25 5 0 18 -9 27 -19 26 -29 46 -20 76 35 21 37 26 53 18 67 -8 16 -7 18 11 12 17 -5 23 -1 31 20 6 15 15 23 21 20 5 -4 19 1 30 11 16 14 19 15 19 2 0 -37 25 -39 87 -8 49 24 144 59 162 60 2 0 -4 -9 -13 -19 -26 -29 -3 -35 45 -11 43 22 55 21 46 -5 -4 -9 -19 -15 -41 -15 -25 0 -38 -6 -46 -21 -10 -17 -8 -21 9 -26 26 -7 27 -23 2 -23 -23 0 -36 -16 -21 -25 5 -3 10 -11 10 -17 0 -7 -4 -7 -13 1 -8 6 -17 8 -20 4 -10 -10 -8 -52 4 -74 14 -28 32 -12 25 23 -3 17 -2 27 4 23 5 -3 28 -8 52 -11 24 -3 47 -7 51 -8 5 0 19 12 30 27 20 26 22 39 19 140 -1 61 -8 117 -14 124 -6 7 -7 13 -3 13 4 0 -8 18 -25 40 -17 22 -36 37 -41 34 -5 -3 5 -24 23 -47 33 -41 36 -60 15 -85 -8 -10 -15 -8 -31 13 -25 29 -48 32 -136 16 -133 -25 -166 -34 -208 -58 -23 -14 -49 -22 -58 -19 -15 6 -15 8 0 30 19 30 11 37 -59 55 -66 17 -74 18 -74 6 0 -16 -60 -24 -91 -12 -25 10 -33 8 -54 -12 -13 -12 -27 -18 -30 -13 -3 6 1 12 9 15 8 4 24 25 35 48 12 23 42 63 67 90 39 42 47 47 71 39 47 -15 165 -29 222 -25 46 3 59 8 82 34 15 17 33 30 40 29 16 -4 39 43 33 69 -3 12 0 25 6 28 5 4 14 18 19 31 5 13 15 23 22 22 10 -2 13 27 13 127 0 72 3 135 6 140 9 14 -15 387 -25 404 -5 7 -9 69 -8 138 l0 124 -33 13 c-18 8 -36 19 -39 25 -4 5 -14 8 -24 5 -15 -5 -15 -4 1 6 16 10 18 25 16 138 -1 70 -5 132 -8 137 -3 6 -6 23 -7 39 -4 69 -15 144 -29 189 -8 26 -12 61 -9 76 4 16 1 32 -5 35 -6 4 -11 20 -11 36 0 46 -16 44 -51 -6 -30 -45 -31 -49 -25 -117 6 -68 -3 -91 -10 -27 -2 18 -6 36 -10 41 -14 23 -22 -8 -33 -118 -7 -65 -17 -135 -23 -156 -14 -46 -15 -75 -4 -198 9 -111 17 -102 -99 -118 -39 -6 -90 -17 -114 -26 -24 -8 -46 -13 -49 -10 -3 3 -6 72 -7 154 -2 81 -7 157 -13 167 -29 56 -69 297 -73 444 -2 70 0 84 12 81 17 -5 102 -11 224 -15 151 -5 148 -5 142 -21 -4 -8 -2 -17 3 -20 4 -3 3 -19 -3 -35 -9 -22 -8 -33 1 -42 9 -9 12 -8 15 3 34 115 38 120 67 94 23 -21 68 -17 96 8 12 10 33 20 45 21 60 8 107 28 139 61 32 33 33 36 17 53 -9 10 -17 33 -17 50 0 17 -5 34 -10 37 -16 10 -352 6 -364 -4 -6 -5 -36 -11 -66 -14 -72 -7 -93 -11 -109 -22 -9 -5 -12 -4 -8 2 4 6 0 16 -7 22 -10 8 -16 9 -21 1 -9 -14 -26 -13 -23 2 3 14 -50 19 -58 6 -10 -15 7 -30 21 -18 9 8 11 5 7 -15 -4 -23 -13 -30 -36 -26 -4 1 -14 -3 -21 -9 -9 -8 -14 -5 -18 12 l-6 22 -26 -24 c-14 -13 -25 -29 -25 -36 0 -8 -6 -11 -14 -8 -19 7 -25 -7 -15 -35 6 -14 15 -21 23 -18 11 4 14 -2 14 -21 -1 -27 -2 -27 -59 -24 -33 2 -59 8 -59 13 0 5 9 8 19 6 11 -1 19 3 18 8 -1 6 -9 10 -17 10 -11 0 -14 9 -12 33 1 25 -3 34 -17 40 -11 4 -21 12 -23 17 -2 6 -6 9 -10 8 -4 -2 -5 4 -2 11 6 16 -24 36 -44 29 -7 -3 -24 5 -36 16 -31 29 -85 36 -92 13z m797 -699 c-9 -15 -10 -12 -10 17 0 29 1 32 10 18 7 -12 7 -24 0 -35z m25 -138 c3 -20 4 -38 1 -42 -7 -7 -36 59 -30 70 10 17 23 5 29 -28z m152 -178 c9 -6 10 -13 3 -21 -6 -7 -12 -66 -13 -132 -2 -89 -6 -119 -16 -119 -7 0 -16 -6 -21 -13 -6 -9 -13 1 -23 32 -16 47 -4 54 13 8 6 -16 13 -22 20 -15 11 11 -12 73 -36 93 -14 12 -14 15 1 31 16 17 16 19 0 25 -16 6 -16 8 0 25 15 16 15 19 1 24 -15 6 -16 15 -4 48 4 9 9 24 12 32 4 14 18 10 63 -18z m-367 -149 c5 -7 13 -14 19 -14 5 -1 13 -3 18 -4 4 -2 18 -3 32 -4 24 -1 25 -5 28 -66 4 -77 -6 -190 -17 -190 -5 0 -19 17 -33 38 -13 20 -45 69 -70 107 -63 96 -71 113 -64 140 5 21 9 22 42 15 20 -5 41 -15 45 -22z m163 -14 c14 -5 14 -8 1 -27 -11 -16 -12 -24 -3 -35 14 -16 18 -94 5 -89 -5 1 -9 7 -9 12 0 6 -4 15 -9 21 -8 10 -11 124 -3 124 1 0 9 -3 18 -6z m194 -213 c4 -74 -11 -74 -27 0 -14 65 -14 68 7 65 14 -2 18 -15 20 -65z m49 -188 c-2 -21 -4 -4 -4 37 0 41 2 58 4 38 2 -21 2 -55 0 -75z m-185 40 c27 -26 39 -51 18 -38 -17 11 -32 -5 -19 -21 17 -20 2 -17 -32 7 -16 11 -34 17 -40 14 -7 -5 -9 1 -7 16 2 16 10 24 23 24 11 0 19 6 18 13 -4 19 8 14 39 -15z m45 -133 c7 -24 11 -45 9 -48 -9 -8 -26 10 -26 27 0 10 -11 26 -25 35 -29 19 -25 37 8 32 16 -2 25 -14 34 -46z m156 21 c3 -11 -1 -25 -9 -32 -12 -9 -14 -5 -14 25 0 38 14 42 23 7z m-143 -219 c0 -21 -2 -22 -15 -12 -8 7 -15 20 -15 30 0 10 -7 23 -16 30 -8 8 -20 23 -26 34 -6 12 7 4 31 -19 26 -25 41 -48 41 -63z m-421 -9 c10 -19 9 -22 -4 -17 -8 4 -15 15 -15 27 0 23 2 22 19 -10z m31 -72 c5 -18 5 -33 -1 -36 -5 -4 -9 -2 -9 3 0 5 -3 25 -6 43 -8 41 3 34 16 -10z m121 -517 c-17 -14 -31 -33 -31 -43 0 -11 -9 -17 -25 -19 -30 -2 -32 9 -5 33 11 10 17 21 15 26 -8 12 26 41 41 35 7 -3 17 0 21 6 5 9 8 9 11 0 2 -7 -10 -24 -27 -38z"/>
 <path d="M337 3183 c-8 -14 -2 -53 8 -56 12 -3 17 51 5 58 -5 3 -11 2 -13 -2z"/>
 <path d="M355 2080 c-4 -7 -3 -16 3 -22 14 -14 45 -2 40 15 -6 16 -34 21 -43 7z"/>
 <path d="M630 1405 c-10 -12 -9 -16 5 -21 19 -8 40 9 31 25 -10 15 -21 14 -36 -4z"/>
 <path d="M1111 1301 c-17 -31 -12 -141 7 -181 9 -19 20 -33 23 -30 3 3 13 -1 22 -8 9 -8 21 -11 27 -7 15 9 1 27 -17 21 -26 -10 -46 59 -41 142 5 74 -3 98 -21 63z"/>
 <path d="M960 815 c-14 -17 -4 -39 15 -31 7 2 31 -9 53 -25 58 -42 68 -18 14 33 -44 41 -63 46 -82 23z"/>
 <path d="M876 785 c-16 -24 -16 -26 8 -35 17 -6 24 -15 20 -24 -3 -8 2 -19 13 -24 22 -12 88 -101 76 -103 -4 -1 -30 -1 -58 0 -39 1 -54 6 -67 24 -14 19 -18 20 -23 6 -3 -9 -7 -28 -9 -43 -1 -15 -7 -31 -13 -37 -7 -7 -8 5 -1 41 9 53 4 91 -11 74 -4 -5 -16 -39 -26 -76 -17 -66 -15 -105 4 -93 5 3 4 -7 -4 -22 -7 -16 -20 -73 -28 -128 l-14 -100 36 -75 c33 -69 39 -75 66 -76 17 0 36 -3 42 -7 7 -4 15 -3 18 3 4 6 16 8 26 5 30 -10 123 66 143 116 20 49 20 133 1 223 -13 62 -13 72 0 86 8 9 15 35 15 57 0 22 6 46 14 52 21 18 -4 97 -30 93 -28 -6 -46 -23 -40 -39 3 -8 1 -11 -4 -8 -6 3 -10 13 -10 20 0 8 -13 21 -30 30 -16 8 -36 28 -44 44 -13 23 -34 41 -51 41 -1 0 -10 -11 -19 -25z m39 -255 c22 -11 45 -20 53 -20 7 0 11 -4 7 -9 -7 -13 30 -32 48 -25 10 4 17 -8 24 -46 10 -47 9 -50 -7 -35 -21 19 -33 9 -19 -17 6 -11 17 -17 25 -14 11 4 14 -6 14 -52 0 -73 -11 -92 -36 -65 -11 10 -26 30 -36 43 -13 20 -19 23 -29 13 -10 -10 -10 -17 1 -38 18 -34 6 -43 -15 -11 -9 13 -22 23 -29 20 -6 -2 -12 4 -13 16 -1 16 4 20 27 20 41 0 44 13 10 44 -22 19 -30 35 -30 59 0 18 -5 38 -12 45 -7 7 -9 12 -5 12 4 0 3 9 -3 21 -9 16 -18 19 -37 14 -25 -6 -25 0 0 33 12 16 16 16 62 -8z m-41 -236 c23 -22 20 -32 -9 -26 -16 3 -25 11 -25 23 0 23 13 24 34 3z m-16 -71 c-2 -10 3 -17 10 -15 6 1 12 -2 12 -7 0 -5 3 -16 6 -25 5 -12 0 -16 -17 -16 -30 0 -43 9 -58 37 -15 30 -15 31 17 36 15 2 28 5 30 6 2 0 2 -7 0 -16z"/>
 <path d="M485 730 c-3 -5 0 -13 8 -16 23 -8 82 0 82 11 0 14 -82 19 -90 5z"/>
 </g>


</svg>